<?xml version="1.0" encoding="iso-8859-1"?>
<!-- Generator: Adobe Illustrator 19.0.0, SVG Export Plug-In . SVG Version: 6.00 Build 0)  -->
<svg version="1.1" id="Layer_1" xmlns="http://www.w3.org/2000/svg" xmlns:xlink="http://www.w3.org/1999/xlink" x="0px" y="0px"
	 viewBox="0 0 512 512" style="enable-background:new 0 0 512 512;" xml:space="preserve">
<g>
	<g>
		<g>
			<path d="M401.067,0C339.9,0,290.133,49.766,290.133,110.933S339.9,221.867,401.067,221.867S512,172.1,512,110.933
				S462.234,0,401.067,0z M460.8,119.467h-51.2v51.2c0,4.71-3.823,8.533-8.533,8.533s-8.533-3.823-8.533-8.533v-51.2h-51.2
				c-4.71,0-8.533-3.823-8.533-8.533s3.823-8.533,8.533-8.533h51.2V51.2c0-4.71,3.823-8.533,8.533-8.533S409.6,46.49,409.6,51.2
				v51.2h51.2c4.71,0,8.533,3.823,8.533,8.533S465.51,119.467,460.8,119.467z"/>
			<path d="M68.267,460.8h102.4v-85.333h-102.4V460.8z M93.867,392.533h51.2c4.71,0,8.533,3.823,8.533,8.533
				s-3.823,8.533-8.533,8.533h-51.2c-4.71,0-8.533-3.823-8.533-8.533S89.156,392.533,93.867,392.533z M93.867,426.667H128
				c4.71,0,8.533,3.823,8.533,8.533s-3.823,8.533-8.533,8.533H93.867c-4.71,0-8.533-3.823-8.533-8.533
				S89.156,426.667,93.867,426.667z"/>
			<path d="M204.8,170.667c1.886,0,3.772,0.623,5.333,1.869l28.8,23.04V102.4h-68.267v93.175l28.8-23.04
				C201.028,171.29,202.914,170.667,204.8,170.667z"/>
			<path d="M273.067,110.933c0-2.884,0.247-5.7,0.435-8.533H256v94.899c0,6.298-3.533,11.913-9.207,14.635
				c-5.675,2.722-12.262,1.988-17.178-1.954L204.8,190.131l-24.815,19.849c-2.953,2.364-6.511,3.575-10.112,3.575
				c-2.398,0.009-4.804-0.529-7.066-1.621c-5.675-2.722-9.207-8.337-9.207-14.635V102.4H42.24C18.944,102.4,0,121.54,0,145.067
				v324.267C0,492.86,18.944,512,42.24,512h324.693c23.526,0,42.667-19.14,42.667-42.667V238.498
				c-2.833,0.188-5.649,0.435-8.533,0.435C330.487,238.933,273.067,181.513,273.067,110.933z M187.733,469.333
				c0,4.71-3.823,8.533-8.533,8.533H59.733c-4.71,0-8.533-3.823-8.533-8.533v-102.4c0-4.71,3.823-8.533,8.533-8.533H179.2
				c4.71,0,8.533,3.823,8.533,8.533V469.333z"/>
		</g>
	</g>
</g>
<g>
</g>
<g>
</g>
<g>
</g>
<g>
</g>
<g>
</g>
<g>
</g>
<g>
</g>
<g>
</g>
<g>
</g>
<g>
</g>
<g>
</g>
<g>
</g>
<g>
</g>
<g>
</g>
<g>
</g>
</svg>
