<?xml version="1.0" encoding="iso-8859-1"?>
<!-- Generator: Adobe Illustrator 19.0.0, SVG Export Plug-In . SVG Version: 6.00 Build 0)  -->
<svg version="1.1" id="Layer_1" xmlns="http://www.w3.org/2000/svg" xmlns:xlink="http://www.w3.org/1999/xlink" x="0px" y="0px"
	 viewBox="0 0 491.52 491.52" style="enable-background:new 0 0 491.52 491.52;" xml:space="preserve">
<g>
	<g>
		<path d="M245.761,92.078c-84.739,0-153.682,68.942-153.682,153.685c0,84.735,68.943,153.677,153.682,153.677
			c84.736,0,153.677-68.942,153.677-153.677C399.438,161.02,330.497,92.078,245.761,92.078z M245.761,374.093
			c-70.761,0-128.33-57.569-128.33-128.33s57.569-128.33,128.33-128.33s128.33,57.569,128.33,128.331
			S316.522,374.093,245.761,374.093z"/>
	</g>
</g>
<g>
	<g>
		<path d="M92.923,172.88H0v145.766h92.923c-10.59-22.116-16.699-46.769-16.699-72.883C76.224,219.65,82.332,194.996,92.923,172.88z
			"/>
	</g>
</g>
<g>
	<g>
		<path d="M245.761,133.288c-62.021,0-112.474,50.455-112.474,112.475c0,62.021,50.454,112.474,112.474,112.474
			c62.021,0,112.474-50.454,112.474-112.474C358.235,183.742,307.781,133.288,245.761,133.288z M245.76,298.478
			c-29.116,0-52.718-23.603-52.718-52.718c0-29.115,23.602-52.719,52.718-52.719c6.398,0,12.452,1.313,18.125,3.399
			c-6.536,4.001-10.938,11.143-10.938,19.367c0,12.573,10.192,22.767,22.765,22.767c8.225,0,15.367-4.403,19.367-10.939
			c2.087,5.674,3.4,11.727,3.4,18.125C298.479,274.875,274.875,298.478,245.76,298.478z"/>
	</g>
</g>
<g>
	<g>
		<path d="M398.596,172.88c10.59,22.116,16.698,46.77,16.698,72.883c0,26.114-6.108,50.767-16.699,72.882h92.925V172.88H398.596z"/>
	</g>
</g>
<g>
	<g>
		<path d="M389.941,334.501L389.941,334.501c-29.889,48.382-83.251,80.795-144.18,80.795c-60.929,0-114.294-32.413-144.184-80.795H0
			v93.388c0,35.143,28.489,63.631,63.632,63.631H427.89c35.142,0,63.63-28.488,63.63-63.631v-93.388H389.941z"/>
	</g>
</g>
<g>
	<g>
		<path d="M427.89,0H63.632C28.489,0,0,28.489,0,63.63v93.394h101.577c29.889-48.385,83.254-80.802,144.184-80.802
			c60.93,0,114.294,32.417,144.182,80.802H491.52V63.63C491.52,28.489,463.032,0,427.89,0z M424.355,89.648
			c-12.418,0-22.483-10.065-22.483-22.482c0-12.418,10.065-22.482,22.483-22.482c12.416,0,22.481,10.065,22.481,22.482
			C446.836,79.582,436.772,89.648,424.355,89.648z"/>
	</g>
</g>
<g>
</g>
<g>
</g>
<g>
</g>
<g>
</g>
<g>
</g>
<g>
</g>
<g>
</g>
<g>
</g>
<g>
</g>
<g>
</g>
<g>
</g>
<g>
</g>
<g>
</g>
<g>
</g>
<g>
</g>
</svg>
