<?xml version="1.0" encoding="iso-8859-1"?>
<!-- Generator: Adobe Illustrator 18.0.0, SVG Export Plug-In . SVG Version: 6.00 Build 0)  -->
<!DOCTYPE svg PUBLIC "-//W3C//DTD SVG 1.1//EN" "http://www.w3.org/Graphics/SVG/1.1/DTD/svg11.dtd">
<svg version="1.1" id="Capa_1" xmlns="http://www.w3.org/2000/svg" xmlns:xlink="http://www.w3.org/1999/xlink" x="0px" y="0px"
	 viewBox="0 0 55.981 55.981" style="enable-background:new 0 0 55.981 55.981;" xml:space="preserve">
<g>
	<path d="M55.223,54.29l-5.969-6.244c1.746-1.918,2.82-4.458,2.82-7.25C52.073,34.843,47.231,30,41.277,30
		s-10.796,4.843-10.796,10.796s4.843,10.796,10.796,10.796c2.441,0,4.688-0.824,6.499-2.196l6.001,6.277
		c0.196,0.205,0.459,0.309,0.723,0.309c0.249,0,0.497-0.092,0.691-0.277C55.59,55.322,55.605,54.689,55.223,54.29z M32.482,40.796
		c0-4.85,3.946-8.796,8.796-8.796s8.796,3.946,8.796,8.796s-3.946,8.796-8.796,8.796S32.482,45.646,32.482,40.796z"/>
	<path d="M27.675,43c0,0-0.193-1.188-0.193-2h0.01c-0.001-0.069-0.01-0.135-0.01-0.204c0-5.793,3.594-10.755,8.665-12.796h-8.665
		c-0.552,0-1-0.447-1-1s0.448-1,1-1h18c0.552,0,1,0.447,1,1c0,0.365-0.205,0.67-0.497,0.845c4.061,1.481,7.239,4.806,8.497,8.967
		V12.176C54.482,5.462,49.02,0,42.306,0H12.657C5.943,0,0.482,5.462,0.482,12.176v29.648C0.482,48.538,5.943,54,12.657,54h24.636
		C32.309,52.493,28.521,48.235,27.675,43z M27.482,12h18c0.552,0,1,0.447,1,1s-0.448,1-1,1h-18c-0.552,0-1-0.447-1-1
		S26.929,12,27.482,12z M21.169,37.65l-6.857,7.999c-0.197,0.23-0.477,0.35-0.76,0.35c-0.209,0-0.42-0.065-0.6-0.2L8.381,42.37
		c-0.442-0.331-0.531-0.958-0.2-1.399c0.332-0.442,0.958-0.53,1.4-0.2l3.822,2.866l6.248-7.287c0.359-0.42,0.992-0.468,1.41-0.108
		C21.481,36.601,21.529,37.231,21.169,37.65z M21.169,22.65l-6.857,8c-0.197,0.23-0.477,0.35-0.76,0.35c-0.209,0-0.42-0.065-0.6-0.2
		l-4.571-3.429c-0.442-0.331-0.531-0.958-0.2-1.399c0.332-0.442,0.958-0.531,1.4-0.2l3.822,2.866l6.248-7.288
		c0.359-0.42,0.992-0.468,1.41-0.108C21.481,21.601,21.529,22.231,21.169,22.65z M21.169,8.65l-6.857,8
		c-0.197,0.23-0.477,0.35-0.76,0.35c-0.209,0-0.42-0.065-0.6-0.2l-4.571-3.429c-0.442-0.331-0.531-0.958-0.2-1.399
		c0.332-0.442,0.958-0.531,1.4-0.2l3.822,2.866l6.248-7.288c0.359-0.42,0.992-0.468,1.41-0.108
		C21.481,7.601,21.529,8.231,21.169,8.65z"/>
</g>
<g>
</g>
<g>
</g>
<g>
</g>
<g>
</g>
<g>
</g>
<g>
</g>
<g>
</g>
<g>
</g>
<g>
</g>
<g>
</g>
<g>
</g>
<g>
</g>
<g>
</g>
<g>
</g>
<g>
</g>
</svg>
