<?xml version="1.0" encoding="iso-8859-1"?>
<!-- Generator: Adobe Illustrator 19.0.0, SVG Export Plug-In . SVG Version: 6.00 Build 0)  -->
<svg version="1.1" id="Layer_1" xmlns="http://www.w3.org/2000/svg" xmlns:xlink="http://www.w3.org/1999/xlink" x="0px" y="0px"
	 viewBox="0 0 512 512" style="enable-background:new 0 0 512 512;" xml:space="preserve">
<g>
	<g>
		<polygon points="136.533,327.68 93.867,370.347 93.867,426.667 179.2,426.667 179.2,370.347 		"/>
	</g>
</g>
<g>
	<g>
		<path d="M136.533,276.48l-81.92,81.92l13.653,13.653l62.293-62.293c1.707-1.707,3.413-2.56,5.973-2.56c0.853,0,1.707,0,1.707,0
			h0.853c0.853,0,1.707,0.853,2.56,1.707l62.293,62.293l13.653-13.653L136.533,276.48z"/>
	</g>
</g>
<g>
	<g>
		<path d="M435.2,102.4c7.68,10.24,19.627,17.067,34.133,17.067c23.893,0,42.667-18.773,42.667-42.667s-18.773-42.667-42.667-42.667
			c-13.653,0-26.453,6.827-34.133,17.067H8.533C3.413,51.2,0,54.613,0,59.733v34.133c0,5.12,3.413,8.533,8.533,8.533h85.333v34.133
			H34.133C15.36,136.533,0,151.893,0,170.667v273.067c0,18.773,15.36,34.133,34.133,34.133h409.6
			c18.773,0,34.133-15.36,34.133-34.133V170.667c0-18.773-15.36-34.133-34.133-34.133H384V102.4H435.2z M110.933,102.4h256v34.133
			h-256V102.4z M93.867,171.52v24.747c0,5.12,3.413,8.533,8.533,8.533s8.533-3.413,8.533-8.533V171.52
			c14.507,3.413,25.6,17.067,25.6,33.28c0,18.773-15.36,34.133-34.133,34.133c-18.773,0-34.133-15.36-34.133-34.133
			C68.267,188.587,79.36,175.787,93.867,171.52z M236.373,364.373l-25.6,25.6c-1.707,1.707-3.413,2.56-5.973,2.56
			s-4.267-0.853-5.973-2.56l-2.56-2.56V435.2c0,5.12-3.413,8.533-8.533,8.533h-102.4c-5.12,0-8.533-3.413-8.533-8.533v-47.787
			l-2.56,2.56c-1.707,1.707-3.413,2.56-5.973,2.56s-4.267-0.853-5.973-2.56l-25.6-25.6c-3.413-3.413-3.413-8.533,0-11.947
			l93.867-93.867c1.707-1.707,3.413-2.56,5.973-2.56s4.267,0.853,5.973,2.56l93.867,93.867c1.707,1.707,2.56,3.413,2.56,5.973
			S238.08,362.667,236.373,364.373z M414.72,283.307c4.267,2.56,5.12,7.68,2.56,11.947l-85.333,128
			c-1.707,2.56-4.267,3.413-6.827,3.413c0,0,0,0-0.853,0c-2.56,0-5.12-0.853-6.827-3.413l-42.667-51.2
			c-3.413-3.413-2.56-9.387,0.853-11.947c3.413-3.413,9.387-2.56,11.947,0.853l34.987,42.667l79.36-118.613
			C405.333,281.6,410.453,280.747,414.72,283.307z M409.6,204.8c0,18.773-15.36,34.133-34.133,34.133
			c-18.773,0-34.133-15.36-34.133-34.133c0-16.213,11.093-29.013,25.6-33.28v24.747c0,5.12,3.413,8.533,8.533,8.533
			s8.533-3.413,8.533-8.533V171.52C398.507,175.787,409.6,188.587,409.6,204.8z"/>
	</g>
</g>
<g>
</g>
<g>
</g>
<g>
</g>
<g>
</g>
<g>
</g>
<g>
</g>
<g>
</g>
<g>
</g>
<g>
</g>
<g>
</g>
<g>
</g>
<g>
</g>
<g>
</g>
<g>
</g>
<g>
</g>
</svg>
