<?xml version="1.0" encoding="iso-8859-1"?>
<!-- Generator: Adobe Illustrator 18.0.0, SVG Export Plug-In . SVG Version: 6.00 Build 0)  -->
<!DOCTYPE svg PUBLIC "-//W3C//DTD SVG 1.1//EN" "http://www.w3.org/Graphics/SVG/1.1/DTD/svg11.dtd">
<svg version="1.1" id="Capa_1" xmlns="http://www.w3.org/2000/svg" xmlns:xlink="http://www.w3.org/1999/xlink" x="0px" y="0px"
	 viewBox="0 0 57 57" style="enable-background:new 0 0 57 57;" xml:space="preserve">
<g>
	<path d="M55.688,41.863l-1.444-0.277c-0.677-0.13-1.21-0.573-1.462-1.216c-0.253-0.642-0.163-1.329,0.245-1.885l0.907-1.236
		c0.292-0.398,0.25-0.95-0.1-1.299l-1.959-1.958c-0.339-0.339-0.872-0.389-1.268-0.121l-1.217,0.824
		c-0.331,0.224-0.71,0.343-1.099,0.343c-0.844,0-1.787-0.576-1.956-1.676l-0.233-1.515C46.028,31.36,45.608,31,45.115,31h-2.77
		c-0.479,0-0.892,0.341-0.982,0.812l-0.358,1.865c-0.201,1.051-1.13,1.601-1.942,1.601c-0.389,0-0.769-0.118-1.099-0.342
		l-1.572-1.064c-0.397-0.268-0.929-0.218-1.268,0.121l-1.959,1.958c-0.35,0.349-0.392,0.9-0.1,1.299l0.907,1.236
		c0.408,0.556,0.498,1.243,0.245,1.885c-0.252,0.643-0.785,1.086-1.462,1.216l-1.444,0.277c-0.471,0.091-0.812,0.503-0.812,0.982
		v2.77c0,0.493,0.36,0.913,0.848,0.988l1.515,0.233c0.683,0.105,1.232,0.528,1.508,1.16c0.276,0.633,0.212,1.323-0.175,1.895
		l-0.824,1.217c-0.269,0.396-0.218,0.929,0.121,1.268l1.958,1.959c0.348,0.349,0.899,0.39,1.299,0.1l1.236-0.907
		c0.342-0.252,0.742-0.385,1.156-0.385c0.813,0,1.742,0.551,1.944,1.602l0.277,1.444C41.454,56.659,41.866,57,42.346,57h2.77
		c0.493,0,0.913-0.36,0.988-0.848l0.164-1.065c0.169-1.1,1.113-1.676,1.958-1.676c0.413,0,0.813,0.134,1.156,0.386l0.869,0.638
		c0.4,0.293,0.951,0.25,1.299-0.1l1.958-1.959c0.339-0.339,0.39-0.871,0.121-1.268l-0.824-1.217
		c-0.387-0.571-0.451-1.262-0.175-1.895c0.275-0.632,0.825-1.055,1.508-1.16l1.515-0.233c0.487-0.075,0.848-0.495,0.848-0.988v-2.77
		C56.5,42.366,56.159,41.954,55.688,41.863z M54.5,44.758l-0.667,0.103c-1.354,0.208-2.489,1.082-3.036,2.337
		c-0.548,1.256-0.416,2.682,0.352,3.815l0.361,0.533l-0.768,0.768l-0.177-0.13c-0.689-0.505-1.498-0.772-2.34-0.772
		c-1.979,0-3.635,1.418-3.935,3.371L44.258,55h-1.086l-0.121-0.633c-0.359-1.868-2.004-3.225-3.909-3.225
		c-0.843,0-1.651,0.268-2.34,0.771l-0.544,0.399l-0.768-0.768l0.361-0.533c0.768-1.134,0.899-2.56,0.352-3.815
		c-0.547-1.255-1.683-2.129-3.036-2.337L32.5,44.758v-1.086l0.633-0.121c1.346-0.259,2.447-1.175,2.947-2.449
		c0.5-1.275,0.315-2.695-0.494-3.8l-0.399-0.544l0.768-0.768l0.889,0.602c0.662,0.448,1.43,0.686,2.22,0.686
		c1.905,0,3.548-1.355,3.907-3.224L43.172,33h1.086l0.103,0.667c0.301,1.953,1.955,3.371,3.934,3.371
		c0.789,0,1.556-0.237,2.219-0.687l0.533-0.361l0.768,0.768l-0.399,0.544c-0.81,1.104-0.994,2.524-0.494,3.8
		c0.5,1.274,1.602,2.19,2.947,2.449l0.633,0.121V44.758z"/>
	<path d="M43.5,39c-2.757,0-5,2.243-5,5s2.243,5,5,5s5-2.243,5-5S46.257,39,43.5,39z M43.5,47c-1.654,0-3-1.346-3-3s1.346-3,3-3
		s3,1.346,3,3S45.154,47,43.5,47z"/>
	<path d="M29.498,51.477l1.303-1.923l-2.453-0.377c-0.487-0.075-0.848-0.495-0.848-0.988V43c0-0.25,0-1.547,0-2v-0.633
		c0-0.479,0.341-0.892,0.812-0.982l2.28-0.438l-1.469-2c-0.292-0.398-0.25-0.95,0.1-1.299l5.532-5.529
		c0.34-0.339,0.87-0.389,1.268-0.121l2.338,1.583l0.054-0.315l0.471-2.454C38.976,28.341,39.388,28,39.867,28H27.5
		c-0.552,0-1-0.447-1-1s0.448-1,1-1h18c0.552,0,1,0.447,1,1s1.188,1,1.188,1c0.493,0,0.913,0.36,0.988,0.848l0.378,2.453
		l1.922-1.303c0.396-0.268,0.929-0.218,1.268,0.121l2.256,2.254V12.176C54.5,5.462,49.038,0,42.324,0H12.676
		C5.962,0,0.5,5.462,0.5,12.176v29.648C0.5,48.538,5.962,54,12.676,54h18.198l-1.255-1.256
		C29.28,52.405,29.229,51.873,29.498,51.477z M27.5,12h18c0.552,0,1,0.447,1,1s-0.448,1-1,1h-18c-0.552,0-1-0.447-1-1
		S26.948,12,27.5,12z M21.188,37.65l-6.857,7.999c-0.197,0.23-0.477,0.35-0.76,0.35c-0.209,0-0.42-0.065-0.6-0.2L8.4,42.37
		c-0.442-0.331-0.531-0.958-0.2-1.399c0.332-0.442,0.958-0.53,1.4-0.2l3.822,2.866l6.248-7.287c0.359-0.42,0.992-0.468,1.41-0.108
		C21.499,36.601,21.547,37.231,21.188,37.65z M21.188,22.65l-6.857,8c-0.197,0.23-0.477,0.35-0.76,0.35c-0.209,0-0.42-0.065-0.6-0.2
		L8.4,27.371c-0.442-0.331-0.531-0.958-0.2-1.399c0.332-0.442,0.958-0.531,1.4-0.2l3.822,2.866l6.248-7.288
		c0.359-0.42,0.992-0.468,1.41-0.108C21.499,21.601,21.547,22.231,21.188,22.65z M21.188,8.65l-6.857,8
		c-0.197,0.23-0.477,0.35-0.76,0.35c-0.209,0-0.42-0.065-0.6-0.2L8.4,13.371c-0.442-0.331-0.531-0.958-0.2-1.399
		c0.332-0.442,0.958-0.531,1.4-0.2l3.822,2.866l6.248-7.288c0.359-0.42,0.992-0.468,1.41-0.108
		C21.499,7.601,21.547,8.231,21.188,8.65z"/>
</g>
<g>
</g>
<g>
</g>
<g>
</g>
<g>
</g>
<g>
</g>
<g>
</g>
<g>
</g>
<g>
</g>
<g>
</g>
<g>
</g>
<g>
</g>
<g>
</g>
<g>
</g>
<g>
</g>
<g>
</g>
</svg>
